<svg width="221" height="180" viewBox="0 0 221 180" fill="none" xmlns="http://www.w3.org/2000/svg">
<g filter="url(#filter0_d_220_1546)">
<rect x="2" y="6" width="193" height="152" rx="10" fill="white"/>
<rect x="2.5" y="6.5" width="192" height="151" rx="9.5" stroke="#F3F4F5"/>
</g>
<path d="M20.776 45V27.96H32.224V30.864H24.088V35.256H30.856V37.944H24.088V45H20.776ZM34.2213 27.48H37.4373V40.968C37.4373 41.544 37.5333 41.936 37.7253 42.144C37.9173 42.336 38.1813 42.432 38.5173 42.432C38.7733 42.432 39.0373 42.4 39.3093 42.336C39.5813 42.272 39.8213 42.192 40.0293 42.096L40.4613 44.544C40.0293 44.752 39.5253 44.912 38.9492 45.024C38.3733 45.136 37.8533 45.192 37.3893 45.192C36.3813 45.192 35.5973 44.928 35.0373 44.4C34.4933 43.856 34.2213 43.088 34.2213 42.096V27.48ZM40.9984 41.28C40.9984 40.464 41.2224 39.752 41.6704 39.144C42.1344 38.52 42.7744 38.04 43.5904 37.704C44.4064 37.368 45.3424 37.2 46.3984 37.2C46.9264 37.2 47.4624 37.24 48.0064 37.32C48.5504 37.4 49.0224 37.528 49.4224 37.704V37.032C49.4224 36.232 49.1824 35.616 48.7024 35.184C48.2384 34.752 47.5424 34.536 46.6144 34.536C45.9264 34.536 45.2704 34.656 44.6464 34.896C44.0224 35.136 43.3664 35.488 42.6784 35.952L41.6464 33.84C42.4784 33.296 43.3264 32.888 44.1904 32.616C45.0704 32.344 45.9904 32.208 46.9504 32.208C48.7424 32.208 50.1344 32.656 51.1264 33.552C52.1344 34.448 52.6384 35.728 52.6384 37.392V41.4C52.6384 41.736 52.6944 41.976 52.8064 42.12C52.9344 42.264 53.1344 42.352 53.4064 42.384V45C53.1184 45.048 52.8544 45.088 52.6144 45.12C52.3904 45.152 52.1984 45.168 52.0384 45.168C51.3984 45.168 50.9104 45.024 50.5744 44.736C50.2544 44.448 50.0544 44.096 49.9744 43.68L49.9024 43.032C49.3584 43.736 48.6784 44.28 47.8624 44.664C47.0464 45.048 46.2144 45.24 45.3664 45.24C44.5344 45.24 43.7824 45.072 43.1104 44.736C42.4544 44.384 41.9344 43.912 41.5504 43.32C41.1824 42.712 40.9984 42.032 40.9984 41.28ZM48.8224 41.928C48.9984 41.736 49.1424 41.544 49.2544 41.352C49.3664 41.16 49.4224 40.984 49.4224 40.824V39.552C49.0384 39.392 48.6224 39.272 48.1744 39.192C47.7264 39.096 47.3024 39.048 46.9024 39.048C46.0704 39.048 45.3824 39.232 44.8384 39.6C44.3104 39.952 44.0464 40.424 44.0464 41.016C44.0464 41.336 44.1344 41.64 44.3104 41.928C44.4864 42.216 44.7424 42.448 45.0784 42.624C45.4144 42.8 45.8144 42.888 46.2784 42.888C46.7584 42.888 47.2304 42.8 47.6944 42.624C48.1584 42.432 48.5344 42.2 48.8224 41.928ZM63.0625 44.352C62.7905 44.464 62.4625 44.592 62.0785 44.736C61.6945 44.88 61.2785 44.992 60.8305 45.072C60.3985 45.168 59.9585 45.216 59.5105 45.216C58.9185 45.216 58.3745 45.112 57.8785 44.904C57.3825 44.696 56.9825 44.368 56.6785 43.92C56.3905 43.456 56.2465 42.856 56.2465 42.12V34.896H54.5905V32.424H56.2465V28.344H59.4625V32.424H62.1025V34.896H59.4625V41.04C59.4785 41.472 59.5985 41.784 59.8225 41.976C60.0465 42.168 60.3265 42.264 60.6625 42.264C60.9985 42.264 61.3265 42.208 61.6465 42.096C61.9665 41.984 62.2225 41.888 62.4145 41.808L63.0625 44.352ZM82.1911 45H78.9751V37.944C78.9751 36.936 78.7991 36.2 78.4471 35.736C78.0951 35.272 77.6071 35.04 76.9831 35.04C76.5511 35.04 76.1111 35.152 75.6631 35.376C75.2311 35.6 74.8391 35.912 74.4871 36.312C74.1351 36.696 73.8791 37.144 73.7191 37.656V45H70.5031V32.424H73.4071V34.752C73.7271 34.208 74.1351 33.752 74.6311 33.384C75.1271 33 75.6951 32.712 76.3351 32.52C76.9911 32.312 77.6791 32.208 78.3991 32.208C79.1831 32.208 79.8231 32.352 80.3191 32.64C80.8311 32.912 81.2151 33.288 81.4711 33.768C81.7431 34.232 81.9271 34.76 82.0231 35.352C82.1351 35.944 82.1911 36.544 82.1911 37.152V45ZM88.8514 36.864C87.9234 36.864 87.1234 36.656 86.4514 36.24C85.7794 35.824 85.2674 35.272 84.9154 34.584C84.5634 33.896 84.3874 33.16 84.3874 32.376C84.3874 31.576 84.5634 30.84 84.9154 30.168C85.2674 29.48 85.7794 28.928 86.4514 28.512C87.1234 28.096 87.9234 27.888 88.8514 27.888C89.7794 27.888 90.5714 28.096 91.2274 28.512C91.8994 28.928 92.4114 29.48 92.7634 30.168C93.1314 30.84 93.3154 31.576 93.3154 32.376C93.3154 33.16 93.1394 33.896 92.7874 34.584C92.4354 35.272 91.9234 35.824 91.2514 36.24C90.5794 36.656 89.7794 36.864 88.8514 36.864ZM86.7634 32.4C86.7634 32.864 86.8514 33.288 87.0274 33.672C87.2194 34.04 87.4674 34.328 87.7714 34.536C88.0914 34.744 88.4514 34.848 88.8514 34.848C89.2354 34.848 89.5794 34.744 89.8834 34.536C90.2034 34.312 90.4514 34.016 90.6274 33.648C90.8194 33.264 90.9154 32.84 90.9154 32.376C90.9154 31.88 90.8194 31.456 90.6274 31.104C90.4514 30.736 90.2034 30.448 89.8834 30.24C89.5794 30.032 89.2354 29.928 88.8514 29.928C88.4674 29.928 88.1154 30.032 87.7954 30.24C87.4754 30.448 87.2194 30.744 87.0274 31.128C86.8514 31.496 86.7634 31.92 86.7634 32.4ZM95.0761 45C95.0761 44.28 95.1321 43.632 95.2441 43.056C95.3561 42.48 95.5481 41.944 95.8201 41.448C96.1081 40.952 96.4921 40.488 96.9721 40.056C97.4681 39.608 98.0921 39.176 98.8441 38.76C99.5001 38.408 100.076 38.104 100.572 37.848C101.068 37.576 101.484 37.328 101.82 37.104C102.172 36.88 102.436 36.656 102.612 36.432C102.788 36.192 102.876 35.92 102.876 35.616C102.876 35.296 102.788 35.008 102.612 34.752C102.436 34.48 102.188 34.264 101.868 34.104C101.548 33.944 101.148 33.864 100.668 33.864C100.284 33.864 99.9241 33.912 99.5881 34.008C99.2681 34.104 98.9641 34.24 98.6761 34.416C98.4041 34.592 98.1481 34.792 97.9081 35.016C97.6681 35.224 97.4521 35.448 97.2601 35.688L95.2201 33.336C95.4441 33.112 95.7401 32.872 96.1081 32.616C96.4921 32.344 96.9401 32.096 97.4521 31.872C97.9801 31.632 98.5561 31.44 99.1801 31.296C99.8201 31.136 100.5 31.056 101.22 31.056C102.308 31.056 103.236 31.232 104.004 31.584C104.772 31.92 105.356 32.392 105.756 33C106.172 33.608 106.38 34.32 106.38 35.136C106.38 35.696 106.276 36.192 106.068 36.624C105.86 37.056 105.596 37.44 105.276 37.776C104.956 38.096 104.604 38.384 104.22 38.64C103.852 38.896 103.492 39.12 103.14 39.312C102.644 39.568 102.196 39.808 101.796 40.032C101.396 40.24 101.044 40.456 100.74 40.68C100.436 40.888 100.164 41.104 99.9241 41.328C99.7001 41.552 99.5001 41.808 99.3241 42.096H106.644V45H95.0761ZM116.855 39.336C117.527 39.448 118.111 39.704 118.607 40.104C119.103 40.488 119.487 40.984 119.759 41.592C120.047 42.2 120.191 42.872 120.191 43.608C120.191 44.6 119.935 45.464 119.423 46.2C118.911 46.936 118.183 47.504 117.239 47.904C116.311 48.32 115.215 48.528 113.951 48.528C112.735 48.528 111.655 48.328 110.711 47.928C109.783 47.544 109.007 46.976 108.383 46.224L110.207 43.944C110.623 44.456 111.119 44.856 111.695 45.144C112.287 45.448 113.007 45.6 113.855 45.6C114.831 45.6 115.575 45.4 116.087 45C116.599 44.616 116.855 44.032 116.855 43.248C116.855 42.416 116.559 41.776 115.967 41.328C115.375 40.88 114.479 40.656 113.279 40.656H112.607V38.256H113.351C114.327 38.256 115.087 38.032 115.631 37.584C116.191 37.136 116.471 36.576 116.471 35.904C116.471 35.472 116.367 35.112 116.159 34.824C115.951 34.536 115.663 34.32 115.295 34.176C114.943 34.032 114.527 33.96 114.047 33.96C113.327 33.96 112.671 34.128 112.079 34.464C111.487 34.8 111.007 35.272 110.639 35.88L108.623 33.624C108.959 33.128 109.415 32.704 109.991 32.352C110.583 31.984 111.255 31.696 112.007 31.488C112.775 31.28 113.575 31.176 114.407 31.176C115.495 31.176 116.447 31.352 117.263 31.704C118.095 32.056 118.743 32.552 119.207 33.192C119.671 33.832 119.903 34.576 119.903 35.424C119.903 36.048 119.775 36.64 119.519 37.2C119.263 37.76 118.903 38.232 118.439 38.616C117.991 38.984 117.463 39.224 116.855 39.336Z" fill="black"/>
<path d="M68.688 110C68.688 109.573 68.72 109.173 68.784 108.8C68.8587 108.427 68.9867 108.069 69.168 107.728C69.36 107.387 69.6267 107.061 69.968 106.752C70.3093 106.432 70.752 106.123 71.296 105.824C71.616 105.643 71.936 105.472 72.256 105.312C72.5867 105.152 72.8907 104.981 73.168 104.8C73.456 104.619 73.6853 104.421 73.856 104.208C74.0267 103.984 74.112 103.728 74.112 103.44C74.112 103.195 74.0373 102.96 73.888 102.736C73.7493 102.501 73.536 102.315 73.248 102.176C72.9707 102.027 72.624 101.952 72.208 101.952C71.888 101.952 71.5947 101.995 71.328 102.08C71.072 102.165 70.8373 102.277 70.624 102.416C70.4213 102.544 70.24 102.683 70.08 102.832C69.9307 102.971 69.8027 103.099 69.696 103.216L68.816 102.224C68.9013 102.128 69.0453 102 69.248 101.84C69.4507 101.669 69.7067 101.499 70.016 101.328C70.3253 101.157 70.6827 101.013 71.088 100.896C71.504 100.768 71.9573 100.704 72.448 100.704C73.1093 100.704 73.6747 100.821 74.144 101.056C74.624 101.28 74.992 101.589 75.248 101.984C75.504 102.368 75.632 102.8 75.632 103.28C75.632 103.696 75.5413 104.059 75.36 104.368C75.1893 104.677 74.9653 104.949 74.688 105.184C74.4213 105.419 74.1387 105.621 73.84 105.792C73.552 105.952 73.2907 106.091 73.056 106.208C72.576 106.443 72.1653 106.656 71.824 106.848C71.4827 107.04 71.2 107.232 70.976 107.424C70.7627 107.605 70.5867 107.797 70.448 108C70.32 108.203 70.224 108.443 70.16 108.72H75.808V110H68.688ZM87.6334 110L84.7374 105.936L83.1534 107.424V110H81.7454V98.32H83.1534V105.952L87.4734 101.664H88.9934L85.6654 105.12L89.1534 110H87.6334ZM93.6289 110.16C92.9995 110.16 92.4235 110.048 91.9009 109.824C91.3889 109.589 90.9409 109.275 90.5569 108.88C90.1835 108.475 89.8902 108.011 89.6769 107.488C89.4742 106.965 89.3729 106.411 89.3729 105.824C89.3729 105.035 89.5542 104.315 89.9169 103.664C90.2795 103.013 90.7809 102.491 91.4209 102.096C92.0715 101.701 92.8129 101.504 93.6449 101.504C94.4875 101.504 95.2182 101.707 95.8369 102.112C96.4662 102.507 96.9515 103.029 97.2929 103.68C97.6449 104.32 97.8209 105.013 97.8209 105.76C97.8209 105.867 97.8155 105.973 97.8049 106.08C97.8049 106.176 97.7995 106.251 97.7889 106.304H90.8609C90.9035 106.848 91.0529 107.333 91.3089 107.76C91.5755 108.176 91.9169 108.507 92.3329 108.752C92.7489 108.987 93.1969 109.104 93.6769 109.104C94.1889 109.104 94.6689 108.976 95.1169 108.72C95.5755 108.464 95.8902 108.128 96.0609 107.712L97.2769 108.048C97.0955 108.453 96.8235 108.816 96.4609 109.136C96.1089 109.456 95.6875 109.707 95.1969 109.888C94.7169 110.069 94.1942 110.16 93.6289 110.16ZM90.8129 105.328H96.5089C96.4662 104.784 96.3115 104.304 96.0449 103.888C95.7782 103.472 95.4369 103.147 95.0209 102.912C94.6049 102.677 94.1462 102.56 93.6449 102.56C93.1542 102.56 92.7009 102.677 92.2849 102.912C91.8689 103.147 91.5275 103.472 91.2609 103.888C91.0049 104.304 90.8555 104.784 90.8129 105.328ZM99.5356 112.272C99.6743 112.283 99.813 112.293 99.9516 112.304C100.09 112.325 100.197 112.336 100.272 112.336C100.442 112.336 100.592 112.277 100.72 112.16C100.848 112.043 100.986 111.813 101.136 111.472C101.296 111.141 101.498 110.651 101.744 110L98.2076 101.648H99.6956L102.512 108.576L105.056 101.648H106.448L102.384 112.192C102.288 112.437 102.144 112.667 101.952 112.88C101.77 113.104 101.536 113.28 101.248 113.408C100.96 113.536 100.613 113.6 100.208 113.6C100.112 113.6 100.01 113.595 99.9036 113.584C99.8076 113.573 99.685 113.552 99.5356 113.52V112.272ZM110.516 110.16C109.822 110.16 109.172 110.048 108.564 109.824C107.956 109.589 107.433 109.243 106.996 108.784L107.54 107.792C108.02 108.24 108.5 108.56 108.98 108.752C109.46 108.944 109.95 109.04 110.452 109.04C111.028 109.04 111.497 108.933 111.86 108.72C112.222 108.496 112.404 108.171 112.404 107.744C112.404 107.435 112.308 107.205 112.116 107.056C111.934 106.907 111.673 106.784 111.332 106.688C110.99 106.581 110.585 106.464 110.116 106.336C109.54 106.165 109.054 105.984 108.66 105.792C108.265 105.6 107.966 105.36 107.764 105.072C107.561 104.784 107.46 104.421 107.46 103.984C107.46 103.451 107.598 103.003 107.876 102.64C108.153 102.267 108.532 101.984 109.012 101.792C109.502 101.6 110.057 101.504 110.676 101.504C111.294 101.504 111.854 101.6 112.356 101.792C112.857 101.984 113.289 102.267 113.652 102.64L113.012 103.616C112.681 103.275 112.318 103.024 111.924 102.864C111.529 102.693 111.086 102.608 110.596 102.608C110.308 102.608 110.025 102.645 109.748 102.72C109.47 102.784 109.241 102.907 109.06 103.088C108.878 103.259 108.788 103.504 108.788 103.824C108.788 104.091 108.857 104.304 108.996 104.464C109.145 104.613 109.358 104.741 109.636 104.848C109.924 104.955 110.27 105.072 110.676 105.2C111.305 105.381 111.849 105.563 112.308 105.744C112.777 105.925 113.14 106.16 113.396 106.448C113.652 106.736 113.78 107.136 113.78 107.648C113.78 108.437 113.481 109.056 112.884 109.504C112.286 109.941 111.497 110.16 110.516 110.16Z" fill="black"/>
<path d="M69.192 78.384C68.3813 78.384 67.6507 78.192 67 77.808C66.3493 77.424 65.8587 76.912 65.528 76.272L66.408 75.504C66.7067 75.9947 67.1013 76.3893 67.592 76.688C68.0933 76.9867 68.632 77.136 69.208 77.136C69.6987 77.136 70.136 77.0293 70.52 76.816C70.904 76.6027 71.208 76.3093 71.432 75.936C71.656 75.552 71.768 75.1147 71.768 74.624C71.768 74.144 71.656 73.7227 71.432 73.36C71.2187 72.9973 70.9253 72.7147 70.552 72.512C70.1893 72.3093 69.7787 72.208 69.32 72.208C68.8613 72.208 68.4293 72.3093 68.024 72.512C67.6293 72.7147 67.304 73.0027 67.048 73.376H65.784L67.064 66.864H72.584V68.16H68.104L67.416 71.776C67.6507 71.5307 67.944 71.3387 68.296 71.2C68.6587 71.0507 69.0587 70.976 69.496 70.976C70.2 70.976 70.8293 71.1307 71.384 71.44C71.9493 71.7493 72.392 72.176 72.712 72.72C73.0427 73.264 73.208 73.8933 73.208 74.608C73.208 75.3547 73.0267 76.0107 72.664 76.576C72.312 77.152 71.832 77.5947 71.224 77.904C70.616 78.224 69.9387 78.384 69.192 78.384ZM79.1725 76V64.64H80.6125V76H79.1725ZM90.3528 76H88.9448V71.328C88.9448 70.4427 88.8061 69.7973 88.5288 69.392C88.2621 68.976 87.8514 68.768 87.2968 68.768C86.9128 68.768 86.5288 68.864 86.1448 69.056C85.7714 69.248 85.4354 69.5093 85.1368 69.84C84.8488 70.16 84.6408 70.5333 84.5128 70.96V76H83.1048V67.648H84.3848V69.44C84.6088 69.0453 84.8968 68.704 85.2488 68.416C85.6008 68.128 86.0008 67.904 86.4488 67.744C86.8968 67.584 87.3661 67.504 87.8568 67.504C88.3368 67.504 88.7368 67.5947 89.0568 67.776C89.3874 67.9467 89.6434 68.192 89.8248 68.512C90.0168 68.8213 90.1501 69.1893 90.2248 69.616C90.3101 70.0427 90.3528 70.5067 90.3528 71.008V76ZM96.2383 76.16C95.6089 76.16 95.0329 76.048 94.5103 75.824C93.9983 75.5893 93.5503 75.2693 93.1663 74.864C92.7929 74.4587 92.4996 73.9947 92.2863 73.472C92.0836 72.9493 91.9823 72.3947 91.9823 71.808C91.9823 71.0187 92.1583 70.2987 92.5103 69.648C92.8623 68.9973 93.3583 68.48 93.9983 68.096C94.6383 67.7013 95.3796 67.504 96.2223 67.504C97.0436 67.504 97.7583 67.6907 98.3663 68.064C98.9849 68.4267 99.4436 68.9173 99.7423 69.536L98.3663 69.968C98.1529 69.5733 97.8543 69.2693 97.4703 69.056C97.0863 68.832 96.6596 68.72 96.1903 68.72C95.6783 68.72 95.2089 68.8533 94.7823 69.12C94.3663 69.3867 94.0356 69.7547 93.7903 70.224C93.5449 70.6827 93.4223 71.2107 93.4223 71.808C93.4223 72.3947 93.5449 72.928 93.7903 73.408C94.0463 73.8773 94.3823 74.2507 94.7983 74.528C95.2249 74.8053 95.6943 74.944 96.2063 74.944C96.5369 74.944 96.8516 74.8853 97.1503 74.768C97.4596 74.6507 97.7263 74.496 97.9503 74.304C98.1849 74.1013 98.3449 73.8827 98.4303 73.648L99.8063 74.064C99.6356 74.4693 99.3743 74.832 99.0223 75.152C98.6809 75.4613 98.2703 75.7067 97.7903 75.888C97.3209 76.0693 96.8036 76.16 96.2383 76.16ZM101.402 76V67.648H102.81V76H101.402ZM101.402 66.08V64.32H102.81V66.08H101.402ZM104.545 71.84C104.545 71.0507 104.705 70.3307 105.025 69.68C105.356 69.0187 105.804 68.4907 106.369 68.096C106.945 67.7013 107.601 67.504 108.337 67.504C109.009 67.504 109.612 67.68 110.145 68.032C110.678 68.384 111.094 68.8107 111.393 69.312V64.32H112.801V74.4C112.801 74.5707 112.833 74.6987 112.897 74.784C112.972 74.8587 113.089 74.9013 113.249 74.912V76C112.982 76.0427 112.774 76.064 112.625 76.064C112.348 76.064 112.102 75.968 111.889 75.776C111.686 75.584 111.585 75.3707 111.585 75.136V74.432C111.254 74.9653 110.812 75.3867 110.257 75.696C109.702 76.0053 109.126 76.16 108.529 76.16C107.953 76.16 107.42 76.048 106.929 75.824C106.449 75.5893 106.028 75.2693 105.665 74.864C105.313 74.4587 105.036 74 104.833 73.488C104.641 72.9653 104.545 72.416 104.545 71.84ZM111.393 73.072V70.672C111.265 70.3093 111.057 69.984 110.769 69.696C110.481 69.3973 110.156 69.1627 109.793 68.992C109.441 68.8107 109.089 68.72 108.737 68.72C108.321 68.72 107.942 68.8107 107.601 68.992C107.27 69.1627 106.982 69.3973 106.737 69.696C106.502 69.984 106.321 70.3147 106.193 70.688C106.065 71.0613 106.001 71.4507 106.001 71.856C106.001 72.272 106.07 72.6667 106.209 73.04C106.358 73.4133 106.561 73.744 106.817 74.032C107.084 74.32 107.388 74.544 107.729 74.704C108.081 74.864 108.46 74.944 108.865 74.944C109.121 74.944 109.382 74.896 109.649 74.8C109.926 74.704 110.188 74.5707 110.433 74.4C110.678 74.2293 110.886 74.032 111.057 73.808C111.228 73.5733 111.34 73.328 111.393 73.072ZM118.848 76.16C118.218 76.16 117.642 76.048 117.12 75.824C116.608 75.5893 116.16 75.2747 115.776 74.88C115.402 74.4747 115.109 74.0107 114.896 73.488C114.693 72.9653 114.592 72.4107 114.592 71.824C114.592 71.0347 114.773 70.3147 115.136 69.664C115.498 69.0133 116 68.4907 116.64 68.096C117.29 67.7013 118.032 67.504 118.864 67.504C119.706 67.504 120.437 67.7067 121.056 68.112C121.685 68.5067 122.17 69.0293 122.512 69.68C122.864 70.32 123.04 71.0133 123.04 71.76C123.04 71.8667 123.034 71.9733 123.024 72.08C123.024 72.176 123.018 72.2507 123.008 72.304H116.08C116.122 72.848 116.272 73.3333 116.528 73.76C116.794 74.176 117.136 74.5067 117.552 74.752C117.968 74.9867 118.416 75.104 118.896 75.104C119.408 75.104 119.888 74.976 120.336 74.72C120.794 74.464 121.109 74.128 121.28 73.712L122.496 74.048C122.314 74.4533 122.042 74.816 121.68 75.136C121.328 75.456 120.906 75.7067 120.416 75.888C119.936 76.0693 119.413 76.16 118.848 76.16ZM116.032 71.328H121.728C121.685 70.784 121.53 70.304 121.264 69.888C120.997 69.472 120.656 69.1467 120.24 68.912C119.824 68.6773 119.365 68.56 118.864 68.56C118.373 68.56 117.92 68.6773 117.504 68.912C117.088 69.1467 116.746 69.472 116.48 69.888C116.224 70.304 116.074 70.784 116.032 71.328ZM131.853 76H130.445V71.328C130.445 70.4427 130.306 69.7973 130.029 69.392C129.762 68.976 129.351 68.768 128.797 68.768C128.413 68.768 128.029 68.864 127.645 69.056C127.271 69.248 126.935 69.5093 126.637 69.84C126.349 70.16 126.141 70.5333 126.013 70.96V76H124.605V67.648H125.885V69.44C126.109 69.0453 126.397 68.704 126.749 68.416C127.101 68.128 127.501 67.904 127.949 67.744C128.397 67.584 128.866 67.504 129.357 67.504C129.837 67.504 130.237 67.5947 130.557 67.776C130.887 67.9467 131.143 68.192 131.325 68.512C131.517 68.8213 131.65 69.1893 131.725 69.616C131.81 70.0427 131.853 70.5067 131.853 71.008V76ZM138.284 75.584C138.167 75.6373 138.007 75.7067 137.804 75.792C137.601 75.8773 137.367 75.952 137.1 76.016C136.833 76.08 136.551 76.112 136.252 76.112C135.911 76.112 135.596 76.0533 135.308 75.936C135.02 75.808 134.791 75.616 134.62 75.36C134.449 75.0933 134.364 74.7627 134.364 74.368V68.752H133.228V67.648H134.364V64.864H135.772V67.648H137.644V68.752H135.772V73.936C135.793 74.2347 135.895 74.4587 136.076 74.608C136.257 74.7467 136.471 74.816 136.716 74.816C136.993 74.816 137.249 74.768 137.484 74.672C137.719 74.576 137.873 74.5067 137.948 74.464L138.284 75.584ZM142.453 76.16C141.76 76.16 141.109 76.048 140.501 75.824C139.893 75.5893 139.37 75.2427 138.933 74.784L139.477 73.792C139.957 74.24 140.437 74.56 140.917 74.752C141.397 74.944 141.888 75.04 142.389 75.04C142.965 75.04 143.434 74.9333 143.797 74.72C144.16 74.496 144.341 74.1707 144.341 73.744C144.341 73.4347 144.245 73.2053 144.053 73.056C143.872 72.9067 143.61 72.784 143.269 72.688C142.928 72.5813 142.522 72.464 142.053 72.336C141.477 72.1653 140.992 71.984 140.597 71.792C140.202 71.6 139.904 71.36 139.701 71.072C139.498 70.784 139.397 70.4213 139.397 69.984C139.397 69.4507 139.536 69.0027 139.813 68.64C140.09 68.2667 140.469 67.984 140.949 67.792C141.44 67.6 141.994 67.504 142.613 67.504C143.232 67.504 143.792 67.6 144.293 67.792C144.794 67.984 145.226 68.2667 145.589 68.64L144.949 69.616C144.618 69.2747 144.256 69.024 143.861 68.864C143.466 68.6933 143.024 68.608 142.533 68.608C142.245 68.608 141.962 68.6453 141.685 68.72C141.408 68.784 141.178 68.9067 140.997 69.088C140.816 69.2587 140.725 69.504 140.725 69.824C140.725 70.0907 140.794 70.304 140.933 70.464C141.082 70.6133 141.296 70.7413 141.573 70.848C141.861 70.9547 142.208 71.072 142.613 71.2C143.242 71.3813 143.786 71.5627 144.245 71.744C144.714 71.9253 145.077 72.16 145.333 72.448C145.589 72.736 145.717 73.136 145.717 73.648C145.717 74.4373 145.418 75.056 144.821 75.504C144.224 75.9413 143.434 76.16 142.453 76.16Z" fill="black"/>
<defs>
<filter id="filter0_d_220_1546" x="0" y="0" width="221" height="180" filterUnits="userSpaceOnUse" color-interpolation-filters="sRGB">
<feFlood flood-opacity="0" result="BackgroundImageFix"/>
<feColorMatrix in="SourceAlpha" type="matrix" values="0 0 0 0 0 0 0 0 0 0 0 0 0 0 0 0 0 0 127 0" result="hardAlpha"/>
<feOffset dx="12" dy="8"/>
<feGaussianBlur stdDeviation="7"/>
<feComposite in2="hardAlpha" operator="out"/>
<feColorMatrix type="matrix" values="0 0 0 0 0 0 0 0 0 0 0 0 0 0 0 0 0 0 0.08 0"/>
<feBlend mode="normal" in2="BackgroundImageFix" result="effect1_dropShadow_220_1546"/>
<feBlend mode="normal" in="SourceGraphic" in2="effect1_dropShadow_220_1546" result="shape"/>
</filter>
</defs>
</svg>
