<svg width="221" height="180" viewBox="0 0 221 180" fill="none" xmlns="http://www.w3.org/2000/svg">
<g filter="url(#filter0_d_213_1492)">
<rect x="2" y="6" width="193" height="152" rx="10" fill="white"/>
<rect x="2.5" y="6.5" width="192" height="151" rx="9.5" stroke="#F3F4F5"/>
</g>
<path d="M26.488 66.048V62.472H19.48V59.616L27.52 49.296H29.704V59.592H31.816V62.472H29.704V66.048H26.488ZM22.696 59.592H26.848V54.168L22.696 59.592ZM38.9989 66.576C37.7669 66.576 36.6549 66.312 35.6629 65.784C34.6709 65.256 33.9189 64.536 33.4069 63.624L35.2549 61.704C35.7029 62.328 36.2629 62.824 36.9349 63.192C37.6069 63.56 38.3029 63.744 39.0229 63.744C39.5989 63.744 40.1029 63.624 40.5349 63.384C40.9829 63.144 41.3349 62.808 41.5909 62.376C41.8469 61.944 41.9749 61.448 41.9749 60.888C41.9749 60.328 41.8549 59.84 41.6149 59.424C41.3749 59.008 41.0469 58.688 40.6309 58.464C40.2149 58.224 39.7429 58.104 39.2149 58.104C38.6869 58.104 38.1909 58.224 37.7269 58.464C37.2789 58.688 36.9189 59.016 36.6469 59.448H33.8389L35.8069 49.296H44.2069V52.224H38.1349L37.4389 56.04C37.6469 55.848 37.9349 55.688 38.3029 55.56C38.6709 55.416 39.1269 55.344 39.6709 55.344C40.7429 55.344 41.7029 55.576 42.5509 56.04C43.3989 56.504 44.0629 57.152 44.5429 57.984C45.0229 58.8 45.2629 59.744 45.2629 60.816C45.2629 61.952 44.9909 62.952 44.4469 63.816C43.9029 64.696 43.1589 65.376 42.2149 65.856C41.2709 66.336 40.1989 66.576 38.9989 66.576ZM47.752 65.76L48.4 62.904H47.392V59.544H50.176V62.904L49.192 65.76H47.752ZM65.1381 55.968C65.1381 57.376 64.8661 58.632 64.3221 59.736C63.7941 60.824 63.0581 61.68 62.1141 62.304C61.1861 62.928 60.1301 63.24 58.9461 63.24C57.7621 63.24 56.6981 62.928 55.7541 62.304C54.8261 61.68 54.0901 60.824 53.5461 59.736C53.0181 58.632 52.7541 57.376 52.7541 55.968C52.7541 54.56 53.0181 53.312 53.5461 52.224C54.0901 51.12 54.8261 50.256 55.7541 49.632C56.6981 48.992 57.7621 48.672 58.9461 48.672C60.1301 48.672 61.1861 48.992 62.1141 49.632C63.0581 50.256 63.7941 51.12 64.3221 52.224C64.8661 53.312 65.1381 54.56 65.1381 55.968ZM61.8981 55.968C61.8981 55.104 61.7701 54.352 61.5141 53.712C61.2741 53.056 60.9301 52.544 60.4821 52.176C60.0341 51.808 59.5221 51.624 58.9461 51.624C58.3541 51.624 57.8341 51.808 57.3861 52.176C56.9381 52.544 56.5861 53.056 56.3301 53.712C56.0901 54.352 55.9701 55.104 55.9701 55.968C55.9701 56.832 56.0901 57.584 56.3301 58.224C56.5861 58.864 56.9381 59.368 57.3861 59.736C57.8341 60.104 58.3541 60.288 58.9461 60.288C59.5221 60.288 60.0261 60.104 60.4581 59.736C60.9061 59.368 61.2581 58.864 61.5141 58.224C61.7701 57.568 61.8981 56.816 61.8981 55.968ZM79.8803 55.968C79.8803 57.376 79.6083 58.632 79.0643 59.736C78.5363 60.824 77.8003 61.68 76.8563 62.304C75.9283 62.928 74.8723 63.24 73.6883 63.24C72.5043 63.24 71.4403 62.928 70.4963 62.304C69.5683 61.68 68.8323 60.824 68.2883 59.736C67.7603 58.632 67.4963 57.376 67.4963 55.968C67.4963 54.56 67.7603 53.312 68.2883 52.224C68.8323 51.12 69.5683 50.256 70.4963 49.632C71.4403 48.992 72.5043 48.672 73.6883 48.672C74.8723 48.672 75.9283 48.992 76.8563 49.632C77.8003 50.256 78.5363 51.12 79.0643 52.224C79.6083 53.312 79.8803 54.56 79.8803 55.968ZM76.6403 55.968C76.6403 55.104 76.5123 54.352 76.2563 53.712C76.0163 53.056 75.6723 52.544 75.2243 52.176C74.7763 51.808 74.2643 51.624 73.6883 51.624C73.0963 51.624 72.5763 51.808 72.1283 52.176C71.6803 52.544 71.3283 53.056 71.0723 53.712C70.8323 54.352 70.7123 55.104 70.7123 55.968C70.7123 56.832 70.8323 57.584 71.0723 58.224C71.3283 58.864 71.6803 59.368 72.1283 59.736C72.5763 60.104 73.0963 60.288 73.6883 60.288C74.2643 60.288 74.7683 60.104 75.2003 59.736C75.6483 59.368 76.0003 58.864 76.2563 58.224C76.5123 57.568 76.6403 56.816 76.6403 55.968ZM94.6225 55.968C94.6225 57.376 94.3505 58.632 93.8065 59.736C93.2785 60.824 92.5425 61.68 91.5985 62.304C90.6705 62.928 89.6145 63.24 88.4305 63.24C87.2465 63.24 86.1825 62.928 85.2385 62.304C84.3105 61.68 83.5745 60.824 83.0305 59.736C82.5025 58.632 82.2385 57.376 82.2385 55.968C82.2385 54.56 82.5025 53.312 83.0305 52.224C83.5745 51.12 84.3105 50.256 85.2385 49.632C86.1825 48.992 87.2465 48.672 88.4305 48.672C89.6145 48.672 90.6705 48.992 91.5985 49.632C92.5425 50.256 93.2785 51.12 93.8065 52.224C94.3505 53.312 94.6225 54.56 94.6225 55.968ZM91.3825 55.968C91.3825 55.104 91.2545 54.352 90.9985 53.712C90.7585 53.056 90.4145 52.544 89.9665 52.176C89.5185 51.808 89.0065 51.624 88.4305 51.624C87.8385 51.624 87.3185 51.808 86.8705 52.176C86.4225 52.544 86.0705 53.056 85.8145 53.712C85.5745 54.352 85.4545 55.104 85.4545 55.968C85.4545 56.832 85.5745 57.584 85.8145 58.224C86.0705 58.864 86.4225 59.368 86.8705 59.736C87.3185 60.104 87.8385 60.288 88.4305 60.288C89.0065 60.288 89.5105 60.104 89.9425 59.736C90.3905 59.368 90.7425 58.864 90.9985 58.224C91.2545 57.568 91.3825 56.816 91.3825 55.968ZM96.5967 57.192L97.3407 55.416H107.661L106.941 57.192H96.5967ZM108.429 52.416L107.709 54.192H96.9327L97.6527 52.416H108.429ZM98.6127 54.36C98.6127 53.32 98.7967 52.304 99.1647 51.312C99.5487 50.304 100.101 49.392 100.821 48.576C101.541 47.744 102.421 47.088 103.461 46.608C104.501 46.112 105.685 45.864 107.013 45.864C108.581 45.864 109.933 46.208 111.069 46.896C112.221 47.584 113.077 48.48 113.637 49.584L111.093 51.336C110.805 50.696 110.429 50.192 109.965 49.824C109.501 49.44 109.005 49.176 108.477 49.032C107.949 48.872 107.429 48.792 106.917 48.792C106.085 48.792 105.357 48.96 104.733 49.296C104.125 49.632 103.613 50.072 103.197 50.616C102.781 51.16 102.469 51.768 102.261 52.44C102.069 53.112 101.973 53.784 101.973 54.456C101.973 55.208 102.093 55.936 102.333 56.64C102.573 57.328 102.909 57.944 103.341 58.488C103.789 59.016 104.317 59.44 104.925 59.76C105.549 60.064 106.229 60.216 106.965 60.216C107.493 60.216 108.029 60.128 108.573 59.952C109.117 59.776 109.621 59.496 110.085 59.112C110.549 58.728 110.909 58.232 111.165 57.624L113.877 59.184C113.541 60.032 112.989 60.752 112.221 61.344C111.469 61.936 110.621 62.384 109.677 62.688C108.733 62.992 107.797 63.144 106.869 63.144C105.653 63.144 104.541 62.896 103.533 62.4C102.525 61.888 101.653 61.216 100.917 60.384C100.197 59.536 99.6287 58.592 99.2127 57.552C98.8127 56.496 98.6127 55.432 98.6127 54.36Z" fill="black"/>
<path d="M25 136C84.0157 128.538 57 77.5 102.5 83.5C126.643 86.6837 148.875 111.319 174 39" stroke="#377EF6" stroke-width="5"/>
<path d="M20.36 34V22.64H25.224C25.7253 22.64 26.184 22.7467 26.6 22.96C27.016 23.1627 27.3787 23.44 27.688 23.792C27.9973 24.1333 28.2373 24.5227 28.408 24.96C28.5787 25.3867 28.664 25.824 28.664 26.272C28.664 26.7947 28.5627 27.2907 28.36 27.76C28.168 28.2293 27.8907 28.6293 27.528 28.96C27.176 29.2907 26.76 29.52 26.28 29.648L29.032 34H27.4L24.808 29.92H21.8V34H20.36ZM21.8 28.64H25.24C25.6347 28.64 25.976 28.5333 26.264 28.32C26.5627 28.096 26.792 27.8027 26.952 27.44C27.1227 27.0773 27.208 26.688 27.208 26.272C27.208 25.8453 27.112 25.456 26.92 25.104C26.728 24.7413 26.4773 24.4533 26.168 24.24C25.8587 24.0267 25.5173 23.92 25.144 23.92H21.8V28.64ZM34.082 34.16C33.4527 34.16 32.8767 34.048 32.354 33.824C31.842 33.5893 31.394 33.2747 31.01 32.88C30.6367 32.4747 30.3433 32.0107 30.13 31.488C29.9273 30.9653 29.826 30.4107 29.826 29.824C29.826 29.0347 30.0073 28.3147 30.37 27.664C30.7327 27.0133 31.234 26.4907 31.874 26.096C32.5247 25.7013 33.266 25.504 34.098 25.504C34.9407 25.504 35.6713 25.7067 36.29 26.112C36.9193 26.5067 37.4047 27.0293 37.746 27.68C38.098 28.32 38.274 29.0133 38.274 29.76C38.274 29.8667 38.2687 29.9733 38.258 30.08C38.258 30.176 38.2527 30.2507 38.242 30.304H31.314C31.3567 30.848 31.506 31.3333 31.762 31.76C32.0287 32.176 32.37 32.5067 32.786 32.752C33.202 32.9867 33.65 33.104 34.13 33.104C34.642 33.104 35.122 32.976 35.57 32.72C36.0287 32.464 36.3433 32.128 36.514 31.712L37.73 32.048C37.5487 32.4533 37.2767 32.816 36.914 33.136C36.562 33.456 36.1407 33.7067 35.65 33.888C35.17 34.0693 34.6473 34.16 34.082 34.16ZM31.266 29.328H36.962C36.9193 28.784 36.7647 28.304 36.498 27.888C36.2313 27.472 35.89 27.1467 35.474 26.912C35.058 26.6773 34.5993 26.56 34.098 26.56C33.6073 26.56 33.154 26.6773 32.738 26.912C32.322 27.1467 31.9807 27.472 31.714 27.888C31.458 28.304 31.3087 28.784 31.266 29.328ZM42.0204 34L38.7404 25.648H40.2124L42.8364 32.656L45.4604 25.648H46.8364L43.5564 34H42.0204ZM51.6601 34.16C51.0308 34.16 50.4548 34.048 49.9321 33.824C49.4201 33.5893 48.9721 33.2747 48.5881 32.88C48.2148 32.4747 47.9215 32.0107 47.7081 31.488C47.5055 30.9653 47.4041 30.4107 47.4041 29.824C47.4041 29.0347 47.5855 28.3147 47.9481 27.664C48.3108 27.0133 48.8121 26.4907 49.4521 26.096C50.1028 25.7013 50.8441 25.504 51.6761 25.504C52.5188 25.504 53.2495 25.7067 53.8681 26.112C54.4975 26.5067 54.9828 27.0293 55.3241 27.68C55.6761 28.32 55.8521 29.0133 55.8521 29.76C55.8521 29.8667 55.8468 29.9733 55.8361 30.08C55.8361 30.176 55.8308 30.2507 55.8201 30.304H48.8921C48.9348 30.848 49.0841 31.3333 49.3401 31.76C49.6068 32.176 49.9481 32.5067 50.3641 32.752C50.7801 32.9867 51.2281 33.104 51.7081 33.104C52.2201 33.104 52.7001 32.976 53.1481 32.72C53.6068 32.464 53.9215 32.128 54.0921 31.712L55.3081 32.048C55.1268 32.4533 54.8548 32.816 54.4921 33.136C54.1401 33.456 53.7188 33.7067 53.2281 33.888C52.7481 34.0693 52.2255 34.16 51.6601 34.16ZM48.8441 29.328H54.5401C54.4975 28.784 54.3428 28.304 54.0761 27.888C53.8095 27.472 53.4681 27.1467 53.0521 26.912C52.6361 26.6773 52.1775 26.56 51.6761 26.56C51.1855 26.56 50.7321 26.6773 50.3161 26.912C49.9001 27.1467 49.5588 27.472 49.2921 27.888C49.0361 28.304 48.8868 28.784 48.8441 29.328ZM64.6653 34H63.2573V29.328C63.2573 28.4427 63.1186 27.7973 62.8413 27.392C62.5746 26.976 62.1639 26.768 61.6093 26.768C61.2253 26.768 60.8413 26.864 60.4573 27.056C60.0839 27.248 59.7479 27.5093 59.4493 27.84C59.1613 28.16 58.9533 28.5333 58.8253 28.96V34H57.4173V25.648H58.6973V27.44C58.9213 27.0453 59.2093 26.704 59.5613 26.416C59.9133 26.128 60.3133 25.904 60.7613 25.744C61.2093 25.584 61.6786 25.504 62.1693 25.504C62.6493 25.504 63.0493 25.5947 63.3693 25.776C63.6999 25.9467 63.9559 26.192 64.1373 26.512C64.3293 26.8213 64.4626 27.1893 64.5373 27.616C64.6226 28.0427 64.6653 28.5067 64.6653 29.008V34ZM66.7747 30.656V25.648H68.1828V30.384C68.1828 31.2373 68.3321 31.8773 68.6308 32.304C68.9294 32.7307 69.3721 32.944 69.9588 32.944C70.3428 32.944 70.7108 32.864 71.0628 32.704C71.4254 32.5333 71.7508 32.2933 72.0388 31.984C72.3268 31.6747 72.5508 31.3067 72.7108 30.88V25.648H74.1188V32.4C74.1188 32.5707 74.1508 32.6987 74.2148 32.784C74.2894 32.8587 74.4068 32.9013 74.5668 32.912V34C74.4068 34.0213 74.2788 34.032 74.1828 34.032C74.0974 34.0427 74.0121 34.048 73.9268 34.048C73.6601 34.048 73.4308 33.968 73.2388 33.808C73.0468 33.6373 72.9454 33.4293 72.9348 33.184L72.9028 32.208C72.5401 32.8267 72.0494 33.3067 71.4308 33.648C70.8228 33.9893 70.1561 34.16 69.4308 34.16C68.5561 34.16 67.8948 33.8667 67.4468 33.28C66.9988 32.6827 66.7747 31.808 66.7747 30.656ZM80.1601 34.16C79.5308 34.16 78.9548 34.048 78.4321 33.824C77.9201 33.5893 77.4721 33.2747 77.0881 32.88C76.7148 32.4747 76.4215 32.0107 76.2081 31.488C76.0055 30.9653 75.9041 30.4107 75.9041 29.824C75.9041 29.0347 76.0855 28.3147 76.4481 27.664C76.8108 27.0133 77.3121 26.4907 77.9521 26.096C78.6028 25.7013 79.3441 25.504 80.1761 25.504C81.0188 25.504 81.7495 25.7067 82.3681 26.112C82.9975 26.5067 83.4828 27.0293 83.8241 27.68C84.1761 28.32 84.3521 29.0133 84.3521 29.76C84.3521 29.8667 84.3468 29.9733 84.3361 30.08C84.3361 30.176 84.3308 30.2507 84.3201 30.304H77.3921C77.4348 30.848 77.5841 31.3333 77.8401 31.76C78.1068 32.176 78.4481 32.5067 78.8641 32.752C79.2801 32.9867 79.7281 33.104 80.2081 33.104C80.7201 33.104 81.2001 32.976 81.6481 32.72C82.1068 32.464 82.4215 32.128 82.5921 31.712L83.8081 32.048C83.6268 32.4533 83.3548 32.816 82.9921 33.136C82.6401 33.456 82.2188 33.7067 81.7281 33.888C81.2481 34.0693 80.7255 34.16 80.1601 34.16ZM77.3441 29.328H83.0401C82.9975 28.784 82.8428 28.304 82.5761 27.888C82.3095 27.472 81.9681 27.1467 81.5521 26.912C81.1361 26.6773 80.6775 26.56 80.1761 26.56C79.6855 26.56 79.2321 26.6773 78.8161 26.912C78.4001 27.1467 78.0588 27.472 77.7921 27.888C77.5361 28.304 77.3868 28.784 77.3441 29.328ZM88.7812 34.16C88.0879 34.16 87.4373 34.048 86.8293 33.824C86.2213 33.5893 85.6986 33.2427 85.2613 32.784L85.8053 31.792C86.2853 32.24 86.7653 32.56 87.2453 32.752C87.7253 32.944 88.2159 33.04 88.7173 33.04C89.2933 33.04 89.7626 32.9333 90.1253 32.72C90.4879 32.496 90.6693 32.1707 90.6693 31.744C90.6693 31.4347 90.5733 31.2053 90.3813 31.056C90.1999 30.9067 89.9386 30.784 89.5973 30.688C89.2559 30.5813 88.8506 30.464 88.3813 30.336C87.8053 30.1653 87.3199 29.984 86.9253 29.792C86.5306 29.6 86.2319 29.36 86.0293 29.072C85.8266 28.784 85.7253 28.4213 85.7253 27.984C85.7253 27.4507 85.8639 27.0027 86.1413 26.64C86.4186 26.2667 86.7973 25.984 87.2773 25.792C87.7679 25.6 88.3226 25.504 88.9413 25.504C89.5599 25.504 90.1199 25.6 90.6213 25.792C91.1226 25.984 91.5546 26.2667 91.9173 26.64L91.2773 27.616C90.9466 27.2747 90.5839 27.024 90.1893 26.864C89.7946 26.6933 89.3519 26.608 88.8613 26.608C88.5733 26.608 88.2906 26.6453 88.0133 26.72C87.7359 26.784 87.5066 26.9067 87.3253 27.088C87.1439 27.2587 87.0533 27.504 87.0533 27.824C87.0533 28.0907 87.1226 28.304 87.2613 28.464C87.4106 28.6133 87.6239 28.7413 87.9013 28.848C88.1893 28.9547 88.5359 29.072 88.9413 29.2C89.5706 29.3813 90.1146 29.5627 90.5733 29.744C91.0426 29.9253 91.4053 30.16 91.6613 30.448C91.9173 30.736 92.0453 31.136 92.0453 31.648C92.0453 32.4373 91.7466 33.056 91.1493 33.504C90.5519 33.9413 89.7626 34.16 88.7812 34.16Z" fill="black"/>
<defs>
<filter id="filter0_d_213_1492" x="0" y="0" width="221" height="180" filterUnits="userSpaceOnUse" color-interpolation-filters="sRGB">
<feFlood flood-opacity="0" result="BackgroundImageFix"/>
<feColorMatrix in="SourceAlpha" type="matrix" values="0 0 0 0 0 0 0 0 0 0 0 0 0 0 0 0 0 0 127 0" result="hardAlpha"/>
<feOffset dx="12" dy="8"/>
<feGaussianBlur stdDeviation="7"/>
<feComposite in2="hardAlpha" operator="out"/>
<feColorMatrix type="matrix" values="0 0 0 0 0 0 0 0 0 0 0 0 0 0 0 0 0 0 0.08 0"/>
<feBlend mode="normal" in2="BackgroundImageFix" result="effect1_dropShadow_213_1492"/>
<feBlend mode="normal" in="SourceGraphic" in2="effect1_dropShadow_213_1492" result="shape"/>
</filter>
</defs>
</svg>
