<svg xmlns="http://www.w3.org/2000/svg" xmlns:xlink="http://www.w3.org/1999/xlink" width="109" zoomAndPan="magnify" viewBox="0 0 81.75 33.749998" height="45" preserveAspectRatio="xMidYMid meet" version="1.0"><defs><g/></defs><path fill="#5271ff" d="M 8.722656 21.804688 L 4.375 21.804688 L 12.40625 10.449219 L 19.875 21.714844 L 15.648438 21.757812 L 12.3125 16.726562 Z M 8.722656 21.804688 " fill-opacity="1" fill-rule="nonzero"/><path fill="#5271ff" d="M 14.253906 20.800781 L 12.339844 17.984375 L 10.230469 20.800781 L 12.242188 24.5625 Z M 14.253906 20.800781 " fill-opacity="1" fill-rule="nonzero"/><g fill="#000000" fill-opacity="1"><g transform="translate(23.801014, 20.584475)"><g><path d="M 6.171875 0 L 5.703125 -1.390625 L 2.71875 -1.390625 L 2.265625 0 L 0.109375 0 L 3 -8.34375 L 5.453125 -8.34375 L 8.34375 0 Z M 3.234375 -2.9375 L 5.203125 -2.9375 L 4.21875 -5.890625 Z M 3.234375 -2.9375 "/></g></g></g><g fill="#000000" fill-opacity="1"><g transform="translate(32.49368, 20.584475)"><g><path d="M 0.046875 -6.609375 L 2.203125 -6.609375 L 3.703125 -1.6875 L 5.21875 -6.609375 L 7.359375 -6.609375 L 5.015625 0 L 2.390625 0 Z M 0.046875 -6.609375 "/></g></g></g><g fill="#000000" fill-opacity="1"><g transform="translate(40.156023, 20.584475)"><g><path d="M 3.6875 0.078125 C 2.726562 0.078125 1.941406 -0.226562 1.328125 -0.84375 C 0.710938 -1.46875 0.40625 -2.289062 0.40625 -3.3125 C 0.40625 -4.34375 0.707031 -5.160156 1.3125 -5.765625 C 1.925781 -6.378906 2.71875 -6.6875 3.6875 -6.6875 C 4.664062 -6.6875 5.472656 -6.382812 6.109375 -5.78125 C 6.753906 -5.175781 7.078125 -4.34375 7.078125 -3.28125 C 7.078125 -3.050781 7.054688 -2.835938 7.015625 -2.640625 L 2.46875 -2.640625 C 2.507812 -2.347656 2.640625 -2.109375 2.859375 -1.921875 C 3.085938 -1.734375 3.328125 -1.640625 3.578125 -1.640625 C 3.835938 -1.640625 4.03125 -1.664062 4.15625 -1.71875 C 4.28125 -1.769531 4.375 -1.820312 4.4375 -1.875 C 4.5 -1.925781 4.578125 -2.007812 4.671875 -2.125 L 6.859375 -2.125 C 6.671875 -1.46875 6.289062 -0.9375 5.71875 -0.53125 C 5.15625 -0.125 4.476562 0.078125 3.6875 0.078125 Z M 4.96875 -3.90625 C 4.9375 -4.21875 4.800781 -4.46875 4.5625 -4.65625 C 4.320312 -4.851562 4.039062 -4.953125 3.71875 -4.953125 C 3.394531 -4.953125 3.117188 -4.851562 2.890625 -4.65625 C 2.671875 -4.46875 2.535156 -4.21875 2.484375 -3.90625 Z M 4.96875 -3.90625 "/></g></g></g><g fill="#000000" fill-opacity="1"><g transform="translate(47.889422, 20.584475)"><g><path d="M 2.90625 -6.609375 L 2.90625 -5.640625 C 3.332031 -6.335938 4.003906 -6.6875 4.921875 -6.6875 C 5.671875 -6.6875 6.28125 -6.429688 6.75 -5.921875 C 7.226562 -5.410156 7.46875 -4.722656 7.46875 -3.859375 L 7.46875 0 L 5.453125 0 L 5.453125 -3.59375 C 5.453125 -4.019531 5.335938 -4.347656 5.109375 -4.578125 C 4.878906 -4.804688 4.566406 -4.921875 4.171875 -4.921875 C 3.785156 -4.921875 3.476562 -4.804688 3.25 -4.578125 C 3.019531 -4.347656 2.90625 -4.019531 2.90625 -3.59375 L 2.90625 0 L 0.890625 0 L 0.890625 -6.609375 Z M 2.90625 -6.609375 "/></g></g></g><g fill="#000000" fill-opacity="1"><g transform="translate(56.42813, 20.584475)"><g><path d="M 2.734375 -7.359375 C 2.503906 -7.128906 2.222656 -7.015625 1.890625 -7.015625 C 1.554688 -7.015625 1.273438 -7.128906 1.046875 -7.359375 C 0.816406 -7.585938 0.703125 -7.867188 0.703125 -8.203125 C 0.703125 -8.535156 0.816406 -8.816406 1.046875 -9.046875 C 1.273438 -9.273438 1.554688 -9.390625 1.890625 -9.390625 C 2.222656 -9.390625 2.503906 -9.273438 2.734375 -9.046875 C 2.960938 -8.816406 3.078125 -8.535156 3.078125 -8.203125 C 3.078125 -7.867188 2.960938 -7.585938 2.734375 -7.359375 Z M 0.890625 0 L 0.890625 -6.609375 L 2.90625 -6.609375 L 2.90625 0 Z M 0.890625 0 "/></g></g></g><g fill="#000000" fill-opacity="1"><g transform="translate(60.478421, 20.584475)"><g><path d="M 0.4375 -4.625 C 0.4375 -5.207031 0.6875 -5.695312 1.1875 -6.09375 C 1.6875 -6.488281 2.359375 -6.6875 3.203125 -6.6875 C 4.054688 -6.6875 4.742188 -6.488281 5.265625 -6.09375 C 5.785156 -5.707031 6.0625 -5.179688 6.09375 -4.515625 L 4.015625 -4.515625 C 3.992188 -4.742188 3.914062 -4.898438 3.78125 -4.984375 C 3.644531 -5.066406 3.441406 -5.109375 3.171875 -5.109375 C 2.640625 -5.109375 2.375 -4.945312 2.375 -4.625 C 2.375 -4.332031 2.703125 -4.128906 3.359375 -4.015625 C 4.003906 -3.898438 4.597656 -3.726562 5.140625 -3.5 C 5.410156 -3.394531 5.640625 -3.210938 5.828125 -2.953125 C 6.015625 -2.691406 6.109375 -2.378906 6.109375 -2.015625 C 6.109375 -1.398438 5.84375 -0.894531 5.3125 -0.5 C 4.789062 -0.113281 4.125 0.078125 3.3125 0.078125 C 2.507812 0.078125 1.835938 -0.101562 1.296875 -0.46875 C 0.765625 -0.832031 0.472656 -1.375 0.421875 -2.09375 L 2.5 -2.09375 C 2.550781 -1.695312 2.835938 -1.5 3.359375 -1.5 C 3.585938 -1.5 3.78125 -1.550781 3.9375 -1.65625 C 4.09375 -1.769531 4.171875 -1.910156 4.171875 -2.078125 C 4.171875 -2.253906 4.039062 -2.394531 3.78125 -2.5 C 3.53125 -2.601562 3.222656 -2.6875 2.859375 -2.75 C 2.492188 -2.820312 2.125 -2.910156 1.75 -3.015625 C 1.382812 -3.128906 1.070312 -3.316406 0.8125 -3.578125 C 0.5625 -3.847656 0.4375 -4.195312 0.4375 -4.625 Z M 0.4375 -4.625 "/></g></g></g><g fill="#000000" fill-opacity="1"><g transform="translate(67.299924, 20.584475)"><g><path d="M 3.6875 -1.71875 L 4.421875 -1.71875 L 4.421875 0 L 3.390625 0 C 2.648438 0 2.070312 -0.160156 1.65625 -0.484375 C 1.25 -0.816406 1.046875 -1.378906 1.046875 -2.171875 L 1.046875 -4.921875 L 0.4375 -4.921875 L 0.4375 -6.609375 L 1.046875 -6.609375 L 1.046875 -8.21875 L 3.078125 -8.21875 L 3.078125 -6.609375 L 4.40625 -6.609375 L 4.40625 -4.921875 L 3.078125 -4.921875 L 3.078125 -2.171875 C 3.078125 -1.867188 3.28125 -1.71875 3.6875 -1.71875 Z M 3.6875 -1.71875 "/></g></g></g></svg>