<svg width="234" height="202" viewBox="0 0 234 202" fill="none" xmlns="http://www.w3.org/2000/svg">
<g filter="url(#filter0_d_213_1449)">
<rect x="2" y="28" width="193" height="152" rx="10" fill="white"/>
<rect x="2.5" y="28.5" width="192" height="151" rx="9.5" stroke="#F3F4F5"/>
</g>
<path d="M37.144 69.336C37.816 69.448 38.4 69.704 38.896 70.104C39.392 70.488 39.776 70.984 40.048 71.592C40.336 72.2 40.48 72.872 40.48 73.608C40.48 74.6 40.224 75.464 39.712 76.2C39.2 76.936 38.472 77.504 37.528 77.904C36.6 78.32 35.504 78.528 34.24 78.528C33.024 78.528 31.944 78.328 31 77.928C30.072 77.544 29.296 76.976 28.672 76.224L30.496 73.944C30.912 74.456 31.408 74.856 31.984 75.144C32.576 75.448 33.296 75.6 34.144 75.6C35.12 75.6 35.864 75.4 36.376 75C36.888 74.616 37.144 74.032 37.144 73.248C37.144 72.416 36.848 71.776 36.256 71.328C35.664 70.88 34.768 70.656 33.568 70.656H32.896V68.256H33.64C34.616 68.256 35.376 68.032 35.92 67.584C36.48 67.136 36.76 66.576 36.76 65.904C36.76 65.472 36.656 65.112 36.448 64.824C36.24 64.536 35.952 64.32 35.584 64.176C35.232 64.032 34.816 63.96 34.336 63.96C33.616 63.96 32.96 64.128 32.368 64.464C31.776 64.8 31.296 65.272 30.928 65.88L28.912 63.624C29.248 63.128 29.704 62.704 30.28 62.352C30.872 61.984 31.544 61.696 32.296 61.488C33.064 61.28 33.864 61.176 34.696 61.176C35.784 61.176 36.736 61.352 37.552 61.704C38.384 62.056 39.032 62.552 39.496 63.192C39.96 63.832 40.192 64.576 40.192 65.424C40.192 66.048 40.064 66.64 39.808 67.2C39.552 67.76 39.192 68.232 38.728 68.616C38.28 68.984 37.752 69.224 37.144 69.336ZM47.6708 78.576C46.4388 78.576 45.3268 78.312 44.3348 77.784C43.3428 77.256 42.5908 76.536 42.0788 75.624L43.9268 73.704C44.3748 74.328 44.9348 74.824 45.6068 75.192C46.2788 75.56 46.9748 75.744 47.6948 75.744C48.2708 75.744 48.7748 75.624 49.2068 75.384C49.6548 75.144 50.0068 74.808 50.2628 74.376C50.5188 73.944 50.6468 73.448 50.6468 72.888C50.6468 72.328 50.5268 71.84 50.2868 71.424C50.0468 71.008 49.7188 70.688 49.3028 70.464C48.8868 70.224 48.4148 70.104 47.8868 70.104C47.3588 70.104 46.8628 70.224 46.3988 70.464C45.9508 70.688 45.5908 71.016 45.3188 71.448H42.5108L44.4788 61.296H52.8788V64.224H46.8068L46.1108 68.04C46.3188 67.848 46.6068 67.688 46.9748 67.56C47.3428 67.416 47.7988 67.344 48.3428 67.344C49.4148 67.344 50.3748 67.576 51.2228 68.04C52.0708 68.504 52.7348 69.152 53.2148 69.984C53.6948 70.8 53.9348 71.744 53.9348 72.816C53.9348 73.952 53.6628 74.952 53.1188 75.816C52.5748 76.696 51.8308 77.376 50.8868 77.856C49.9428 78.336 48.8708 78.576 47.6708 78.576Z" fill="black"/>
<path d="M38.08 50.072C38.08 50.6587 37.9307 51.1707 37.632 51.608C37.3333 52.0453 36.928 52.3867 36.416 52.632C35.9147 52.8773 35.36 53 34.752 53H29.36V41.64H35.008C35.5413 41.64 36 41.784 36.384 42.072C36.7787 42.3493 37.0773 42.712 37.28 43.16C37.4933 43.5973 37.6 44.056 37.6 44.536C37.6 45.0907 37.456 45.6133 37.168 46.104C36.8907 46.584 36.4907 46.9413 35.968 47.176C36.6187 47.368 37.1307 47.7253 37.504 48.248C37.888 48.76 38.08 49.368 38.08 50.072ZM36.624 49.816C36.624 49.464 36.544 49.1387 36.384 48.84C36.2347 48.5413 36.0267 48.3013 35.76 48.12C35.504 47.9387 35.2053 47.848 34.864 47.848H30.8V51.752H34.752C35.104 51.752 35.4187 51.6613 35.696 51.48C35.984 51.2987 36.208 51.064 36.368 50.776C36.5387 50.4773 36.624 50.1573 36.624 49.816ZM30.8 42.888V46.68H34.416C34.7573 46.68 35.056 46.5947 35.312 46.424C35.5787 46.2533 35.7867 46.024 35.936 45.736C36.096 45.448 36.176 45.1333 36.176 44.792C36.176 44.4293 36.1013 44.1093 35.952 43.832C35.8133 43.544 35.616 43.3147 35.36 43.144C35.1147 42.9733 34.832 42.888 34.512 42.888H30.8ZM43.5184 53.16C42.889 53.16 42.3184 53.048 41.8064 52.824C41.2944 52.5893 40.8517 52.2747 40.4784 51.88C40.105 51.4747 39.817 51.0107 39.6144 50.488C39.4117 49.9653 39.3104 49.416 39.3104 48.84C39.3104 48.2533 39.4117 47.6987 39.6144 47.176C39.817 46.6533 40.105 46.1947 40.4784 45.8C40.8517 45.3947 41.2944 45.08 41.8064 44.856C42.329 44.6213 42.8997 44.504 43.5184 44.504C44.1477 44.504 44.7184 44.6213 45.2304 44.856C45.7424 45.08 46.185 45.3947 46.5584 45.8C46.9424 46.1947 47.2357 46.6533 47.4384 47.176C47.641 47.6987 47.7424 48.2533 47.7424 48.84C47.7424 49.416 47.641 49.9653 47.4384 50.488C47.2357 51.0107 46.9477 51.4747 46.5744 51.88C46.201 52.2747 45.753 52.5893 45.2304 52.824C44.7184 53.048 44.1477 53.16 43.5184 53.16ZM40.7504 48.856C40.7504 49.432 40.873 49.9547 41.1184 50.424C41.3744 50.8933 41.7104 51.2667 42.1264 51.544C42.5424 51.8107 43.0064 51.944 43.5184 51.944C44.0304 51.944 44.4944 51.8053 44.9104 51.528C45.337 51.2507 45.673 50.8773 45.9184 50.408C46.1744 49.928 46.3024 49.4 46.3024 48.824C46.3024 48.248 46.1744 47.7253 45.9184 47.256C45.673 46.7867 45.337 46.4133 44.9104 46.136C44.4944 45.8587 44.0304 45.72 43.5184 45.72C43.0064 45.72 42.5424 45.864 42.1264 46.152C41.7104 46.4293 41.3744 46.8027 41.1184 47.272C40.873 47.7413 40.7504 48.2693 40.7504 48.856ZM53.0965 53.16C52.4672 53.16 51.8965 53.048 51.3845 52.824C50.8725 52.5893 50.4298 52.2747 50.0565 51.88C49.6832 51.4747 49.3952 51.0107 49.1925 50.488C48.9898 49.9653 48.8885 49.416 48.8885 48.84C48.8885 48.2533 48.9898 47.6987 49.1925 47.176C49.3952 46.6533 49.6832 46.1947 50.0565 45.8C50.4298 45.3947 50.8725 45.08 51.3845 44.856C51.9072 44.6213 52.4778 44.504 53.0965 44.504C53.7258 44.504 54.2965 44.6213 54.8085 44.856C55.3205 45.08 55.7632 45.3947 56.1365 45.8C56.5205 46.1947 56.8138 46.6533 57.0165 47.176C57.2192 47.6987 57.3205 48.2533 57.3205 48.84C57.3205 49.416 57.2192 49.9653 57.0165 50.488C56.8138 51.0107 56.5258 51.4747 56.1525 51.88C55.7792 52.2747 55.3312 52.5893 54.8085 52.824C54.2965 53.048 53.7258 53.16 53.0965 53.16ZM50.3285 48.856C50.3285 49.432 50.4512 49.9547 50.6965 50.424C50.9525 50.8933 51.2885 51.2667 51.7045 51.544C52.1205 51.8107 52.5845 51.944 53.0965 51.944C53.6085 51.944 54.0725 51.8053 54.4885 51.528C54.9152 51.2507 55.2512 50.8773 55.4965 50.408C55.7525 49.928 55.8805 49.4 55.8805 48.824C55.8805 48.248 55.7525 47.7253 55.4965 47.256C55.2512 46.7867 54.9152 46.4133 54.4885 46.136C54.0725 45.8587 53.6085 45.72 53.0965 45.72C52.5845 45.72 52.1205 45.864 51.7045 46.152C51.2885 46.4293 50.9525 46.8027 50.6965 47.272C50.4512 47.7413 50.3285 48.2693 50.3285 48.856ZM64.9146 53L62.0186 48.936L60.4346 50.424V53H59.0266V41.32H60.4346V48.952L64.7546 44.664H66.2746L62.9466 48.12L66.4346 53H64.9146ZM67.6516 53V44.648H69.0596V53H67.6516ZM67.6516 43.08V41.32H69.0596V43.08H67.6516ZM78.5871 53H77.1791V48.328C77.1791 47.4427 77.0405 46.7973 76.7631 46.392C76.4965 45.976 76.0858 45.768 75.5311 45.768C75.1471 45.768 74.7631 45.864 74.3791 46.056C74.0058 46.248 73.6698 46.5093 73.3711 46.84C73.0831 47.16 72.8751 47.5333 72.7471 47.96V53H71.3391V44.648H72.6191V46.44C72.8431 46.0453 73.1311 45.704 73.4831 45.416C73.8351 45.128 74.2351 44.904 74.6831 44.744C75.1311 44.584 75.6005 44.504 76.0911 44.504C76.5711 44.504 76.9711 44.5947 77.2911 44.776C77.6218 44.9467 77.8778 45.192 78.0591 45.512C78.2511 45.8213 78.3845 46.1893 78.4591 46.616C78.5445 47.0427 78.5871 47.5067 78.5871 48.008V53ZM84.1046 53.096C83.5393 53.096 83.0166 52.984 82.5366 52.76C82.0673 52.5253 81.662 52.2107 81.3206 51.816C80.9793 51.4107 80.7126 50.952 80.5206 50.44C80.3393 49.928 80.2486 49.3947 80.2486 48.84C80.2486 48.2533 80.3393 47.6987 80.5206 47.176C80.7126 46.6533 80.9793 46.1947 81.3206 45.8C81.6726 45.3947 82.0833 45.08 82.5526 44.856C83.022 44.6213 83.5446 44.504 84.1206 44.504C84.814 44.504 85.4166 44.6747 85.9286 45.016C86.4513 45.3573 86.8886 45.7893 87.2406 46.312V44.648H88.4886V52.904C88.4886 53.6933 88.2966 54.36 87.9126 54.904C87.5393 55.448 87.0273 55.8587 86.3766 56.136C85.7366 56.424 85.022 56.568 84.2326 56.568C83.294 56.568 82.526 56.4027 81.9286 56.072C81.3313 55.7413 80.8353 55.2933 80.4406 54.728L81.2566 54.008C81.5873 54.4987 82.014 54.8667 82.5366 55.112C83.07 55.3573 83.6353 55.48 84.2326 55.48C84.7446 55.48 85.214 55.384 85.6406 55.192C86.078 55.0107 86.4246 54.728 86.6806 54.344C86.9473 53.96 87.0806 53.48 87.0806 52.904V51.432C86.7713 51.944 86.3446 52.3493 85.8006 52.648C85.2673 52.9467 84.702 53.096 84.1046 53.096ZM84.5366 51.944C84.8353 51.944 85.1233 51.8907 85.4006 51.784C85.678 51.6773 85.934 51.5387 86.1686 51.368C86.4033 51.1867 86.6006 50.984 86.7606 50.76C86.9206 50.536 87.0273 50.3067 87.0806 50.072V47.672C86.9313 47.288 86.718 46.952 86.4406 46.664C86.1633 46.3653 85.8486 46.136 85.4966 45.976C85.1446 45.8053 84.782 45.72 84.4086 45.72C83.982 45.72 83.598 45.8107 83.2566 45.992C82.926 46.1733 82.6433 46.4187 82.4086 46.728C82.174 47.0267 81.9926 47.3627 81.8646 47.736C81.7366 48.1093 81.6726 48.488 81.6726 48.872C81.6726 49.288 81.7473 49.6827 81.8966 50.056C82.046 50.4187 82.2486 50.744 82.5046 51.032C82.7606 51.32 83.0646 51.544 83.4166 51.704C83.7686 51.864 84.142 51.944 84.5366 51.944ZM93.625 53.16C92.9317 53.16 92.281 53.048 91.673 52.824C91.065 52.5893 90.5423 52.2427 90.105 51.784L90.649 50.792C91.129 51.24 91.609 51.56 92.089 51.752C92.569 51.944 93.0597 52.04 93.561 52.04C94.137 52.04 94.6063 51.9333 94.969 51.72C95.3317 51.496 95.513 51.1707 95.513 50.744C95.513 50.4347 95.417 50.2053 95.225 50.056C95.0437 49.9067 94.7823 49.784 94.441 49.688C94.0997 49.5813 93.6943 49.464 93.225 49.336C92.649 49.1653 92.1637 48.984 91.769 48.792C91.3743 48.6 91.0757 48.36 90.873 48.072C90.6703 47.784 90.569 47.4213 90.569 46.984C90.569 46.4507 90.7077 46.0027 90.985 45.64C91.2623 45.2667 91.641 44.984 92.121 44.792C92.6117 44.6 93.1663 44.504 93.785 44.504C94.4037 44.504 94.9637 44.6 95.465 44.792C95.9663 44.984 96.3983 45.2667 96.761 45.64L96.121 46.616C95.7903 46.2747 95.4277 46.024 95.033 45.864C94.6383 45.6933 94.1957 45.608 93.705 45.608C93.417 45.608 93.1343 45.6453 92.857 45.72C92.5797 45.784 92.3503 45.9067 92.169 46.088C91.9877 46.2587 91.897 46.504 91.897 46.824C91.897 47.0907 91.9663 47.304 92.105 47.464C92.2543 47.6133 92.4677 47.7413 92.745 47.848C93.033 47.9547 93.3797 48.072 93.785 48.2C94.4143 48.3813 94.9583 48.5627 95.417 48.744C95.8863 48.9253 96.249 49.16 96.505 49.448C96.761 49.736 96.889 50.136 96.889 50.648C96.889 51.4373 96.5903 52.056 95.993 52.504C95.3957 52.9413 94.6063 53.16 93.625 53.16Z" fill="black"/>
<line x1="28" y1="107.5" x2="178" y2="107.5" stroke="#BBBBC6"/>
<line x1="28" y1="129.5" x2="178" y2="129.5" stroke="#BBBBC6"/>
<line x1="28" y1="150.5" x2="178" y2="150.5" stroke="#BBBBC6"/>
<rect x="32" y="116" width="26" height="5" rx="2.5" fill="#D9D9D9"/>
<rect x="32" y="138" width="22" height="5" rx="2.5" fill="#D9D9D9"/>
<rect x="32" y="160" width="22" height="5" rx="2.5" fill="#D9D9D9"/>
<rect x="65" y="116" width="22" height="5" rx="2.5" fill="#D9D9D9"/>
<rect x="65" y="138" width="22" height="5" rx="2.5" fill="#D9D9D9"/>
<rect x="65" y="160" width="22" height="5" rx="2.5" fill="#D9D9D9"/>
<rect x="95" y="116" width="22" height="5" rx="2.5" fill="#D9D9D9"/>
<rect x="95" y="138" width="22" height="5" rx="2.5" fill="#D9D9D9"/>
<rect x="95" y="160" width="22" height="5" rx="2.5" fill="#D9D9D9"/>
<rect x="125" y="116" width="22" height="5" rx="2.5" fill="#D9D9D9"/>
<rect x="125" y="138" width="22" height="5" rx="2.5" fill="#D9D9D9"/>
<rect x="125" y="160" width="22" height="5" rx="2.5" fill="#D9D9D9"/>
<rect x="156" y="116" width="22" height="5" rx="2.5" fill="#377EF6"/>
<rect x="156" y="138" width="22" height="5" rx="2.5" fill="#377EF6"/>
<rect x="156" y="160" width="22" height="5" rx="2.5" fill="#377EF6"/>
<rect x="32" y="96" width="22" height="5" rx="2.5" fill="#727272"/>
<rect x="65" y="96" width="22" height="5" rx="2.5" fill="#727272"/>
<rect x="95" y="96" width="22" height="5" rx="2.5" fill="#727272"/>
<rect x="125" y="96" width="22" height="5" rx="2.5" fill="#727272"/>
<rect x="156" y="96" width="22" height="5" rx="2.5" fill="#727272"/>
<g filter="url(#filter1_d_213_1449)">
<rect x="147" y="6" width="61" height="63" rx="10" fill="#ECF4FF"/>
</g>
<path d="M162.36 57V45.64H167.096C167.597 45.64 168.056 45.7467 168.472 45.96C168.888 46.1627 169.251 46.44 169.56 46.792C169.869 47.1333 170.109 47.5227 170.28 47.96C170.451 48.3867 170.536 48.824 170.536 49.272C170.536 49.8907 170.397 50.4827 170.12 51.048C169.843 51.6027 169.453 52.056 168.952 52.408C168.451 52.7493 167.864 52.92 167.192 52.92H163.8V57H162.36ZM163.8 51.64H167.112C167.507 51.64 167.848 51.5333 168.136 51.32C168.435 51.1067 168.664 50.8187 168.824 50.456C168.995 50.0933 169.08 49.6987 169.08 49.272C169.08 48.824 168.984 48.424 168.792 48.072C168.6 47.7093 168.349 47.4267 168.04 47.224C167.731 47.0213 167.389 46.92 167.016 46.92H163.8V51.64ZM172.329 57V45.64H176.265C177.481 45.64 178.494 45.896 179.305 46.408C180.126 46.9093 180.739 47.592 181.145 48.456C181.55 49.3093 181.753 50.2587 181.753 51.304C181.753 52.456 181.529 53.4587 181.081 54.312C180.633 55.1653 179.998 55.8267 179.177 56.296C178.355 56.7653 177.385 57 176.265 57H172.329ZM180.297 51.304C180.297 50.4507 180.137 49.6933 179.817 49.032C179.507 48.3707 179.054 47.8533 178.457 47.48C177.859 47.1067 177.129 46.92 176.265 46.92H173.769V55.72H176.265C177.139 55.72 177.875 55.528 178.473 55.144C179.07 54.7493 179.523 54.2213 179.833 53.56C180.142 52.888 180.297 52.136 180.297 51.304ZM183.782 57V45.64H191.286V46.92H185.222V50.712H190.326V51.912H185.222V57H183.782Z" fill="black"/>
<path d="M187 28V32C187 32.5304 186.789 33.0391 186.414 33.4142C186.039 33.7893 185.53 34 185 34H171C170.47 34 169.961 33.7893 169.586 33.4142C169.211 33.0391 169 32.5304 169 32V28" stroke="#377EF6" stroke-width="2" stroke-linecap="round" stroke-linejoin="round"/>
<path d="M173 23L178 28L183 23" stroke="#377EF6" stroke-width="2" stroke-linecap="round" stroke-linejoin="round"/>
<path d="M178 28V16" stroke="#377EF6" stroke-width="2" stroke-linecap="round" stroke-linejoin="round"/>
<defs>
<filter id="filter0_d_213_1449" x="0" y="22" width="221" height="180" filterUnits="userSpaceOnUse" color-interpolation-filters="sRGB">
<feFlood flood-opacity="0" result="BackgroundImageFix"/>
<feColorMatrix in="SourceAlpha" type="matrix" values="0 0 0 0 0 0 0 0 0 0 0 0 0 0 0 0 0 0 127 0" result="hardAlpha"/>
<feOffset dx="12" dy="8"/>
<feGaussianBlur stdDeviation="7"/>
<feComposite in2="hardAlpha" operator="out"/>
<feColorMatrix type="matrix" values="0 0 0 0 0 0 0 0 0 0 0 0 0 0 0 0 0 0 0.08 0"/>
<feBlend mode="normal" in2="BackgroundImageFix" result="effect1_dropShadow_213_1449"/>
<feBlend mode="normal" in="SourceGraphic" in2="effect1_dropShadow_213_1449" result="shape"/>
</filter>
<filter id="filter1_d_213_1449" x="145" y="0" width="89" height="91" filterUnits="userSpaceOnUse" color-interpolation-filters="sRGB">
<feFlood flood-opacity="0" result="BackgroundImageFix"/>
<feColorMatrix in="SourceAlpha" type="matrix" values="0 0 0 0 0 0 0 0 0 0 0 0 0 0 0 0 0 0 127 0" result="hardAlpha"/>
<feOffset dx="12" dy="8"/>
<feGaussianBlur stdDeviation="7"/>
<feComposite in2="hardAlpha" operator="out"/>
<feColorMatrix type="matrix" values="0 0 0 0 0 0 0 0 0 0 0 0 0 0 0 0 0 0 0.08 0"/>
<feBlend mode="normal" in2="BackgroundImageFix" result="effect1_dropShadow_213_1449"/>
<feBlend mode="normal" in="SourceGraphic" in2="effect1_dropShadow_213_1449" result="shape"/>
</filter>
</defs>
</svg>
